<!DOCTYPE svg PUBLIC "-//W3C//DTD SVG 20010904//EN" "http://www.w3.org/TR/2001/REC-SVG-20010904/DTD/svg10.dtd">
<svg version="1.0" xmlns="http://www.w3.org/2000/svg" width="256px" height="256px" viewBox="0 0 2560 2560" preserveAspectRatio="xMidYMid meet">
<g id="layer101" fill="#000000" stroke="none">
<path d="M0 1280 l0 -1280 1280 0 1280 0 0 1280 0 1280 -1280 0 -1280 0 0 -1280z"/>
</g>
<g id="layer102" fill="#111111" stroke="none">
<path d="M0 1280 l0 -1280 1280 0 1280 0 0 480 0 480 -160 0 -160 0 0 160 0 160 160 0 160 0 0 640 0 640 -1280 0 -1280 0 0 -1280z m960 160 l0 -160 -160 0 -160 0 0 160 0 160 160 0 160 0 0 -160z m960 0 l0 -160 -160 0 -160 0 0 160 0 160 160 0 160 0 0 -160z m307 -497 c-4 -3 -7 0 -7 7 0 7 3 10 7 7 3 -4 3 -10 0 -14z"/>
</g>
<g id="layer103" fill="#634200" stroke="none">
<path d="M0 2080 l0 -480 160 0 160 0 0 -160 0 -160 160 0 160 0 0 -160 0 -160 800 0 800 0 0 160 0 160 160 0 160 0 0 640 0 640 -1280 0 -1280 0 0 -480z m960 -640 l0 -160 -160 0 -160 0 0 160 0 160 160 0 160 0 0 -160z m960 0 l0 -160 -160 0 -160 0 0 160 0 160 160 0 160 0 0 -160z"/>
</g>
<g id="layer104" fill="#ffaa77" stroke="none">
<path d="M0 2080 l0 -480 160 0 160 0 0 -160 0 -160 160 0 160 0 0 -160 0 -160 800 0 800 0 0 160 0 160 160 0 160 0 0 640 0 640 -1280 0 -1280 0 0 -480z m960 -480 l0 -320 -160 0 -160 0 0 320 0 320 160 0 160 0 0 -320z m960 0 l0 -320 -160 0 -160 0 0 320 0 320 160 0 160 0 0 -320z"/>
</g>
<g id="layer105" fill="#f9b68e" stroke="none">
<path d="M640 2400 l0 -160 -320 0 -320 0 0 -320 0 -320 160 0 160 0 0 -160 0 -160 160 0 160 0 0 -160 0 -160 480 0 480 0 0 480 0 480 160 0 160 0 0 -480 0 -480 160 0 160 0 0 160 0 160 160 0 160 0 0 480 0 480 -320 0 -320 0 0 160 0 160 -640 0 -640 0 0 -160z m320 -800 l0 -320 -160 0 -160 0 0 320 0 320 160 0 160 0 0 -320z"/>
</g>
<g id="layer106" fill="#ffc09c" stroke="none">
<path d="M1600 2080 l0 -160 160 0 160 0 0 -320 0 -320 160 0 160 0 0 320 0 320 -160 0 -160 0 0 160 0 160 -160 0 -160 0 0 -160z"/>
</g>
<g id="layer107" fill="#e3e3e3" stroke="none">
<path d="M320 1600 l0 -320 160 0 160 0 0 320 0 320 -160 0 -160 0 0 -320z"/>
<path d="M1920 1600 l0 -320 160 0 160 0 0 320 0 320 -160 0 -160 0 0 -320z"/>
</g>
<g id="layer108" fill="#ffffff" stroke="none">
<path d="M320 1760 l0 -160 160 0 160 0 0 160 0 160 -160 0 -160 0 0 -160z"/>
<path d="M1920 1760 l0 -160 160 0 160 0 0 160 0 160 -160 0 -160 0 0 -160z"/>
</g>


</svg>